<svg width="132" height="25" viewBox="0 0 132 25" fill="none" xmlns="http://www.w3.org/2000/svg">
<path d="M7.26136 24L0.602273 0.727272H5.97727L9.82955 16.8977H10.0227L14.2727 0.727272H18.875L23.1136 16.9318H23.3182L27.1705 0.727272H32.5455L25.8864 24H21.0909L16.6591 8.78409H16.4773L12.0568 24H7.26136ZM41.1676 24.3409C39.3722 24.3409 37.8267 23.9773 36.5312 23.25C35.2434 22.5152 34.2509 21.4773 33.554 20.1364C32.857 18.7879 32.5085 17.1932 32.5085 15.3523C32.5085 13.5568 32.857 11.9811 33.554 10.625C34.2509 9.26894 35.232 8.21212 36.4972 7.45454C37.7699 6.69697 39.2623 6.31818 40.9744 6.31818C42.1259 6.31818 43.1979 6.50379 44.1903 6.875C45.1903 7.23864 46.0616 7.78788 46.804 8.52273C47.554 9.25758 48.1373 10.1818 48.554 11.2955C48.9706 12.4015 49.179 13.697 49.179 15.1818V16.5114H34.4403V13.5114H44.6222C44.6222 12.8144 44.4706 12.197 44.1676 11.6591C43.8646 11.1212 43.4441 10.7008 42.9062 10.3977C42.3759 10.0871 41.7585 9.93182 41.054 9.93182C40.3191 9.93182 39.6676 10.1023 39.0994 10.4432C38.5388 10.7765 38.0994 11.2273 37.7812 11.7955C37.4631 12.3561 37.3002 12.9811 37.2926 13.6705V16.5227C37.2926 17.3864 37.4517 18.1326 37.7699 18.7614C38.0956 19.3902 38.554 19.875 39.1449 20.2159C39.7358 20.5568 40.4366 20.7273 41.2472 20.7273C41.785 20.7273 42.2775 20.6515 42.7244 20.5C43.1714 20.3485 43.554 20.1212 43.8722 19.8182C44.1903 19.5152 44.4328 19.1439 44.5994 18.7045L49.0767 19C48.8494 20.0758 48.3835 21.0152 47.679 21.8182C46.982 22.6136 46.0805 23.2348 44.9744 23.6818C43.8759 24.1212 42.607 24.3409 41.1676 24.3409ZM57.179 13.9091V24H52.3381V6.54545H56.9517V9.625H57.1562C57.5426 8.60985 58.1903 7.80682 59.0994 7.21591C60.0085 6.61742 61.1108 6.31818 62.4062 6.31818C63.6184 6.31818 64.6752 6.58333 65.5767 7.11364C66.4782 7.64394 67.179 8.40151 67.679 9.38636C68.179 10.3636 68.429 11.5303 68.429 12.8864V24H63.5881V13.75C63.5956 12.6818 63.3229 11.8485 62.7699 11.25C62.2169 10.6439 61.4555 10.3409 60.4858 10.3409C59.8343 10.3409 59.2585 10.4811 58.7585 10.7614C58.2661 11.0417 57.8797 11.4508 57.5994 11.9886C57.3267 12.5189 57.1866 13.1591 57.179 13.9091ZM78.6761 24.2841C77.3504 24.2841 76.1496 23.9432 75.0739 23.2614C74.0057 22.572 73.1572 21.5606 72.5284 20.2273C71.9072 18.8864 71.5966 17.2424 71.5966 15.2955C71.5966 13.2955 71.9186 11.6326 72.5625 10.3068C73.2064 8.97348 74.0625 7.97727 75.1307 7.31818C76.2064 6.65152 77.3845 6.31818 78.6648 6.31818C79.642 6.31818 80.4564 6.48485 81.108 6.81818C81.767 7.14394 82.2973 7.55303 82.6989 8.04545C83.108 8.5303 83.4186 9.00758 83.6307 9.47727H83.7784V0.727272H88.608V24H83.8352V21.2045H83.6307C83.4034 21.6894 83.0814 22.1705 82.6648 22.6477C82.2557 23.1174 81.7216 23.5076 81.0625 23.8182C80.411 24.1288 79.6155 24.2841 78.6761 24.2841ZM80.2102 20.4318C80.9905 20.4318 81.6496 20.2197 82.1875 19.7955C82.733 19.3636 83.1496 18.7614 83.4375 17.9886C83.733 17.2159 83.8807 16.3106 83.8807 15.2727C83.8807 14.2348 83.7367 13.3333 83.4489 12.5682C83.161 11.803 82.7443 11.2121 82.1989 10.7955C81.6534 10.3788 80.9905 10.1705 80.2102 10.1705C79.4148 10.1705 78.7443 10.3864 78.1989 10.8182C77.6534 11.25 77.2405 11.8485 76.9602 12.6136C76.6799 13.3788 76.5398 14.2652 76.5398 15.2727C76.5398 16.2879 76.6799 17.1856 76.9602 17.9659C77.2481 18.7386 77.661 19.3447 78.1989 19.7841C78.7443 20.2159 79.4148 20.4318 80.2102 20.4318ZM97.429 0.727272V24H92.5881V0.727272H97.429ZM109.261 24.3409C107.466 24.3409 105.92 23.9773 104.625 23.25C103.337 22.5152 102.345 21.4773 101.648 20.1364C100.951 18.7879 100.602 17.1932 100.602 15.3523C100.602 13.5568 100.951 11.9811 101.648 10.625C102.345 9.26894 103.326 8.21212 104.591 7.45454C105.864 6.69697 107.356 6.31818 109.068 6.31818C110.22 6.31818 111.292 6.50379 112.284 6.875C113.284 7.23864 114.155 7.78788 114.898 8.52273C115.648 9.25758 116.231 10.1818 116.648 11.2955C117.064 12.4015 117.273 13.697 117.273 15.1818V16.5114H102.534V13.5114H112.716C112.716 12.8144 112.564 12.197 112.261 11.6591C111.958 11.1212 111.538 10.7008 111 10.3977C110.47 10.0871 109.852 9.93182 109.148 9.93182C108.413 9.93182 107.761 10.1023 107.193 10.4432C106.633 10.7765 106.193 11.2273 105.875 11.7955C105.557 12.3561 105.394 12.9811 105.386 13.6705V16.5227C105.386 17.3864 105.545 18.1326 105.864 18.7614C106.189 19.3902 106.648 19.875 107.239 20.2159C107.83 20.5568 108.53 20.7273 109.341 20.7273C109.879 20.7273 110.371 20.6515 110.818 20.5C111.265 20.3485 111.648 20.1212 111.966 19.8182C112.284 19.5152 112.527 19.1439 112.693 18.7045L117.17 19C116.943 20.0758 116.477 21.0152 115.773 21.8182C115.076 22.6136 114.174 23.2348 113.068 23.6818C111.97 24.1212 110.701 24.3409 109.261 24.3409ZM120.432 24V6.54545H125.125V9.59091H125.307C125.625 8.50758 126.159 7.68939 126.909 7.13636C127.659 6.57576 128.523 6.29545 129.5 6.29545C129.742 6.29545 130.004 6.31061 130.284 6.34091C130.564 6.37121 130.811 6.41288 131.023 6.46591V10.7614C130.795 10.6932 130.481 10.6326 130.08 10.5795C129.678 10.5265 129.311 10.5 128.977 10.5C128.265 10.5 127.629 10.6553 127.068 10.9659C126.515 11.2689 126.076 11.6932 125.75 12.2386C125.432 12.7841 125.273 13.4129 125.273 14.125V24H120.432Z" fill="black"/>
</svg>
